<svg width="79" height="105" viewBox="0 0 79 105" fill="none" xmlns="http://www.w3.org/2000/svg">
<path d="M49.1 12.1C48.5 18.8 48.2 24.5 48.5 24.8C48.7 25.1 50.9 25.5 53.4 25.7L57.8 26L58.4 21.8C58.7 19.4 59.2 13.6 59.6 8.7L60.3 0H55.3H50.3L49.1 12.1Z" fill="#000"/>
<path d="M47.5 30.4C47.1 31.6 45.7 47.9 45.6 52.4C45.5 55.1 45.8 55.2 50.2 55.6C55.7 56.1 55.5 56.5 56.5 43C56.8 38.3 57.2 33.6 57.3 32.5C57.5 30.8 56.7 30.4 52.6 29.9C49.6 29.6 47.7 29.8 47.5 30.4Z" fill="#000"/>
<path d="M70.5 31.7C65.4 34.4 60 40.4 60 43.6C60 44.8 65.6 42.8 68.8 40.3C71.9 38 76 32.5 76 30.7C76 29.6 73.8 29.9 70.5 31.7Z" fill="#000"/>
<path d="M8.2 32.6L5 34L6.6 37.8C7.5 39.8 9.4 44.4 10.8 48C12.2 51.6 13.5 54.7 13.7 54.9C14 55.3 20.1 53 21.3 52C22.4 51.1 14.4 31.5 12.8 31.3C12.1 31.2 10 31.8 8.2 32.6Z" fill="#000"/>
<path d="M64.9 45.9L62.5 47.8L65.5 49C69 50.4 75.4 49.8 77.6 47.9C79 46.7 79 46.5 77.4 45.3C74.7 43.3 67.6 43.7 64.9 45.9Z" fill="#000"/>
<path d="M61 50.8C61 53.9 63.6 58.7 66 60C69.5 61.9 68.5 56.5 64.5 52.2C61.3 48.8 61.1 48.7 61 50.8Z" fill="#000"/>
<path d="M1 54.3C1 57.5 9.9 62.6 11.4 60.2C12.1 59 8.4 55.1 5.3 53.9C2 52.7 1 52.8 1 54.3Z" fill="#000"/>
<path d="M18.8 57.3C17.2 57.9 16 58.8 16 59.3C16 60.7 23.1 78.3 24 79.4C25 80.4 32 78 32 76.5C31.9 73.8 24.1 56.5 22.9 56.3C22.1 56.3 20.3 56.7 18.8 57.3Z" fill="#000"/>
<path d="M44.5 60.4C44.2 61.3 43.5 70.5 42.7 82.9C42.5 85.1 42.9 85.3 47.5 85.4L52.5 85.5L53.2 77C53.5 72.3 54 66.7 54.2 64.5L54.5 60.5L49.6 59.9C46.6 59.6 44.7 59.8 44.5 60.4Z" fill="#000"/>
<path d="M6.5 64C4 65 -0.5 69.8 0.3 70.6C2.1 72.4 13 66.7 13 63.9C13 62.8 9.2 62.8 6.5 64Z" fill="#000"/>
<path d="M29.3 82.6C27.5 83.4 26 84.2 26 84.5C26 85.9 34.4 105 35 105C35.4 105 37.3 104.3 39.3 103.5L42.8 102.1L38.6 91.5C36.4 85.8 34.1 81.1 33.5 81.1C33 81.1 31 81.8 29.3 82.6Z" fill="#000"/>
</svg>
